<?xml version="1.0" encoding="iso-8859-1"?>
<!-- Generator: Adobe Illustrator 19.0.0, SVG Export Plug-In . SVG Version: 6.00 Build 0)  -->
<svg version="1.1" id="Capa_1" xmlns="http://www.w3.org/2000/svg" xmlns:xlink="http://www.w3.org/1999/xlink" x="0px" y="0px"
	 viewBox="0 0 58 58" style="enable-background:new 0 0 58 58;" xml:space="preserve">
<path style="fill:#D1D4D1;" d="M34.907,48c-0.208,0.58-0.758,1-1.407,1h-8c-0.649,0-1.2-0.42-1.407-1H0.578
	C0.259,48,0,48.259,0,48.578v2.844C0,51.741,0.259,52,0.578,52h56.844C57.741,52,58,51.741,58,51.422v-2.844
	C58,48.259,57.741,48,57.422,48H34.907z"/>
<path style="fill:#ECF0F1;" d="M24.093,48c0.208,0.58,0.758,1,1.407,1h8c0.649,0,1.2-0.42,1.407-1H55V9.067
	C55,7.373,53.627,6,51.933,6H6.067C4.373,6,3,7.373,3,9.067V48H24.093z"/>
<path style="fill:#556080;" d="M52,45H6V10.592C6,9.713,6.713,9,7.592,9h42.816C51.287,9,52,9.713,52,10.592V45z"/>
<g>
	<path style="fill:#F0C419;" d="M28.799,25.614c-0.432,0.325-0.518,0.946-0.207,1.388c0.018,0.025,1.769,2.635,1.408,12.963
		c-0.019,0.552,0.413,1.016,0.965,1.034C30.977,41,30.989,41,31,41c0.536,0,0.98-0.425,0.999-0.965
		c0.389-11.163-1.6-13.976-1.828-14.26C29.832,25.354,29.229,25.29,28.799,25.614z"/>
	<path style="fill:#F0C419;" d="M41.963,26.088c-0.186-1.155-0.444-2.214-0.792-3.234c-1.586-4.675-6.679-8.614-11.353-8.78
		c-1.788-0.067-3.531,0.252-5.177,0.938c-4.548,1.897-7.514,6.303-7.556,11.225c-0.01,1.163,0.146,2.321,0.465,3.444
		c0.167,0.588,0.323,1.164,0.408,1.744c0.199,1.36,0.247,3.55,0.163,7.555c-0.011,0.552,0.427,1.009,0.979,1.021
		c0.007,0,0.014,0,0.021,0c0.542,0,0.988-0.435,1-0.979c0.087-4.178,0.035-6.389-0.185-7.886c-0.102-0.698-0.284-1.371-0.462-1.999
		c-0.266-0.94-0.397-1.91-0.389-2.882c0.035-4.12,2.518-7.808,6.326-9.396c1.377-0.575,2.838-0.835,4.335-0.786
		c3.847,0.138,8.211,3.537,9.531,7.425c0.311,0.914,0.543,1.865,0.71,2.908c0.294,1.833,0.198,4.153,0.077,7.092
		c-0.042,1.029-0.088,2.126-0.12,3.294c-0.015,0.552,0.42,1.012,0.972,1.027c0.009,0,0.019,0,0.028,0c0.54,0,0.984-0.43,0.999-0.973
		c0.032-1.157,0.077-2.245,0.119-3.267C42.19,30.528,42.29,28.119,41.963,26.088z"/>
	<path style="fill:#F0C419;" d="M23.277,26.339c0-0.001,0-0.001,0-0.002c0.055-1.891,0.876-4.46,2.551-5.636
		c0.452-0.317,0.561-0.941,0.244-1.393s-0.94-0.563-1.393-0.244c-2.405,1.688-3.335,4.941-3.401,7.214c0,0.002,0,0.003,0,0.004
		c-0.027,0.948,0.086,1.898,0.335,2.817c0.069,0.263,0.669,2.798,0.387,10.865c-0.019,0.552,0.413,1.016,0.965,1.034
		C22.977,41,22.989,41,23,41c0.536,0,0.98-0.425,0.999-0.965c0.286-8.181-0.327-10.97-0.454-11.452
		C23.346,27.847,23.255,27.092,23.277,26.339z"/>
	<path style="fill:#F0C419;" d="M37.858,26.118c-0.201-1.043-0.489-1.999-0.881-2.925c-1.352-3.198-4.168-5.185-7.35-5.185
		c-0.597,0-1.191,0.064-1.766,0.19c-0.54,0.118-0.881,0.651-0.762,1.19c0.118,0.54,0.649,0.88,1.191,0.763
		c0.435-0.095,0.885-0.144,1.337-0.144c2.364,0,4.474,1.519,5.508,3.964c0.337,0.796,0.585,1.623,0.76,2.528
		c0.438,2.274,0.337,5.067,0.169,9.695L36,37.965c-0.019,0.553,0.413,1.016,0.965,1.034C36.977,39,36.989,39,37,39
		c0.536,0,0.98-0.425,0.999-0.965l0.063-1.766c0.173-4.771,0.278-7.649-0.204-10.147C37.858,26.121,37.858,26.12,37.858,26.118z"/>
	<path style="fill:#F0C419;" d="M35,37.577l0-0.194c0.004-0.552-0.441-1.003-0.993-1.007c-0.002,0-0.004,0-0.007,0
		c-0.549,0-0.996,0.443-1,0.993l0,0.208c0,0.292,0.004,0.55,0.009,0.805c0.004,0.237,0.008,0.472,0.008,0.729l-0.001,0.253
		c-0.006,0.552,0.437,1.005,0.989,1.011c0.003,0,0.007,0,0.011,0c0.547,0,0.994-0.44,1-0.989l0.001-0.274
		c0-0.27-0.004-0.515-0.008-0.763C35.004,38.104,35,37.857,35,37.577z"/>
	<path style="fill:#F0C419;" d="M33.645,24.603c-0.725-1.712-2.394-2.818-4.253-2.818c-0.611,0-1.209,0.12-1.778,0.356
		c-1.674,0.698-2.788,2.324-2.838,4.144c-0.017,0.611,0.087,1.211,0.29,1.73c0.005,0.016,0.032,0.09,0.038,0.105
		c0.361,0.948,1.171,4,0.897,11.845c-0.019,0.552,0.413,1.016,0.965,1.034C26.977,41,26.989,41,27,41
		c0.536,0,0.98-0.425,0.999-0.965c0.276-7.914-0.525-11.309-1.051-12.69c-0.125-0.323-0.183-0.661-0.174-1.006
		c0.029-1.033,0.66-1.957,1.607-2.352c1.309-0.545,2.875,0.103,3.424,1.402c0.078,0.186,0.223,0.53,0.396,1.18
		c0.349,1.306,0.786,3.775,0.886,8.126c0.012,0.544,0.458,0.977,0.999,0.977c0.008,0,0.016,0,0.023,0
		c0.552-0.013,0.989-0.471,0.977-1.023c-0.083-3.651-0.404-6.543-0.953-8.595C33.927,25.271,33.74,24.827,33.645,24.603z"/>
</g>
<g>
</g>
<g>
</g>
<g>
</g>
<g>
</g>
<g>
</g>
<g>
</g>
<g>
</g>
<g>
</g>
<g>
</g>
<g>
</g>
<g>
</g>
<g>
</g>
<g>
</g>
<g>
</g>
<g>
</g>
</svg>
